<?xml version="1.0" encoding="UTF-8"?>
<!DOCTYPE svg PUBLIC "-//W3C//DTD SVG 1.1//EN" "http://www.w3.org/Graphics/SVG/1.1/DTD/svg11.dtd">
<svg xmlns="http://www.w3.org/2000/svg" version="1.1" width="512px" height="512px" style="shape-rendering:geometricPrecision; text-rendering:geometricPrecision; image-rendering:optimizeQuality; fill-rule:evenodd; clip-rule:evenodd" xmlns:xlink="http://www.w3.org/1999/xlink">
<g><path style="opacity:0.982" fill="#38464e" d="M 511.5,152.5 C 511.5,164.167 511.5,175.833 511.5,187.5C 505.044,228.025 489.878,265.025 466,298.5C 432.69,343.48 394.19,383.647 350.5,419C 320.233,443.136 288.566,465.303 255.5,485.5C 191.061,446.592 132.895,399.592 81,344.5C 60.3042,321.442 42.3042,296.442 27,269.5C 12.6959,243.754 3.5292,216.42 -0.5,187.5C -0.5,175.833 -0.5,164.167 -0.5,152.5C 8.5637,96.8777 38.897,57.711 90.5,35C 155.066,14.0558 210.066,28.5558 255.5,78.5C 300.934,28.5558 355.934,14.0558 420.5,35C 472.103,57.711 502.436,96.8777 511.5,152.5 Z"/></g>
<g><path style="opacity:1" fill="#f34336" d="M 389.5,357.5 C 353.702,388.738 315.702,417.071 275.5,442.5C 222.474,408.668 173.64,369.335 129,324.5C 101.027,295.864 77.6935,263.864 59,228.5C 43.6933,198.633 37.36,166.967 40,133.5C 43.2498,111.9 51.0831,92.2329 63.5,74.5C 102.146,43.2285 144.813,36.7285 191.5,55C 218.74,68.0743 240.073,87.5743 255.5,113.5C 297.081,48.5537 353.747,30.387 425.5,59C 468.542,83.7224 490.875,121.056 492.5,171C 489.905,210.119 477.738,245.952 456,278.5C 437.143,307.498 414.977,333.831 389.5,357.5 Z"/></g>
<g><path style="opacity:1" fill="#bd360e" d="M 63.5,74.5 C 51.0831,92.2329 43.2498,111.9 40,133.5C 37.36,166.967 43.6933,198.633 59,228.5C 77.6935,263.864 101.027,295.864 129,324.5C 173.64,369.335 222.474,408.668 275.5,442.5C 315.702,417.071 353.702,388.738 389.5,357.5C 348.891,397.787 304.224,432.787 255.5,462.5C 199.211,426.745 147.711,384.745 101,336.5C 79.9692,313.808 61.6359,289.141 46,262.5C 29.4345,233.642 20.2679,202.642 18.5,169.5C 19.3216,130.866 34.3216,99.1996 63.5,74.5 Z"/></g>
</svg>
