<?xml version="1.0" encoding="UTF-8"?>
<!DOCTYPE svg PUBLIC "-//W3C//DTD SVG 1.1//EN" "http://www.w3.org/Graphics/SVG/1.1/DTD/svg11.dtd">
<svg xmlns="http://www.w3.org/2000/svg" version="1.1" width="696px" height="379px" style="shape-rendering:geometricPrecision; text-rendering:geometricPrecision; image-rendering:optimizeQuality; fill-rule:evenodd; clip-rule:evenodd" xmlns:xlink="http://www.w3.org/1999/xlink">
<g><path style="opacity:0.998" fill="#fd5901" d="M 253.5,138.5 C 263.782,139.452 274.115,139.786 284.5,139.5C 284.543,142.91 284.043,146.243 283,149.5C 273.521,180.267 263.855,210.934 254,241.5C 245.575,242.16 237.075,242.493 228.5,242.5C 219.925,242.493 211.425,242.16 203,241.5C 193.665,212.155 184.331,182.822 175,153.5C 173.525,148.937 172.692,144.27 172.5,139.5C 185.08,139.178 197.58,139.511 210,140.5C 216.042,162.252 222.376,183.918 229,205.5C 234.661,185.182 240.327,164.849 246,144.5C 247.041,140.498 249.541,138.498 253.5,138.5 Z"/></g>
<g><path style="opacity:0.999" fill="#fe5901" d="M 370.5,242.5 C 362.833,241.167 355.167,241.167 347.5,242.5C 344.813,242.664 342.146,242.497 339.5,242C 338.446,240.612 338.28,239.112 339,237.5C 348.767,221.921 358.267,206.254 367.5,190.5C 357.716,174.438 348.05,158.271 338.5,142C 338.645,141.228 338.978,140.561 339.5,140C 352.833,139.333 366.167,139.333 379.5,140C 384.663,147.829 389.163,155.995 393,164.5C 393.779,165.728 394.779,166.728 396,167.5C 401.521,159.124 406.521,150.458 411,141.5C 411.75,140.874 412.584,140.374 413.5,140C 426.167,139.333 438.833,139.333 451.5,140C 452.022,140.561 452.355,141.228 452.5,142C 443.454,158.602 433.787,174.769 423.5,190.5C 431.315,205.465 440.149,219.798 450,233.5C 451.779,235.923 452.446,238.59 452,241.5C 438.909,242.655 425.742,242.822 412.5,242C 406.541,232.584 400.708,223.084 395,213.5C 389.667,222.833 384.333,232.167 379,241.5C 376.281,242.444 373.448,242.777 370.5,242.5 Z"/></g>
<g><path style="opacity:0.992" fill="#fd5902" d="M 493.5,201.5 C 494.609,200.71 495.942,200.21 497.5,200C 490.664,199.961 483.997,199.294 477.5,198C 478.833,192 478.833,186 477.5,180C 478.167,179.667 478.833,179.333 479.5,179C 475.701,178.986 471.867,179.152 468,179.5C 465.5,179.167 463,178.833 460.5,178.5C 461.274,177.289 462.107,177.289 463,178.5C 463.432,177.4 462.932,176.733 461.5,176.5C 460.558,176.608 459.725,176.941 459,177.5C 458.833,174.833 458.667,172.167 458.5,169.5C 458.562,166.387 459.229,163.554 460.5,161C 459.944,160.617 459.611,160.117 459.5,159.5C 465.075,158.548 470.741,158.214 476.5,158.5C 476.334,152.491 476.501,146.491 477,140.5C 484.333,139.167 491.667,139.167 499,140.5C 499.17,146.528 499.67,152.528 500.5,158.5C 505.661,158.459 510.994,158.626 516.5,159C 517.416,159.374 518.25,159.874 519,160.5C 519.667,166.833 519.667,173.167 519,179.5C 518.5,180 518,180.5 517.5,181C 511.833,181.333 506.167,181.667 500.5,182C 499.69,187.751 499.19,193.584 499,199.5C 497.599,201.192 495.766,201.859 493.5,201.5 Z"/></g>
<g><path style="opacity:1" fill="#fd5902" d="M 305.5,137.5 C 327.4,137.629 335.567,148.296 330,169.5C 322.982,179.839 313.482,183.006 301.5,179C 290.226,171.95 286.726,162.116 291,149.5C 292.977,146.688 295.144,144.022 297.5,141.5C 300.358,140.339 303.025,139.006 305.5,137.5 Z"/></g>
<g><path style="opacity:0.589" fill="#fa5e04" d="M 459.5,159.5 C 459.611,160.117 459.944,160.617 460.5,161C 459.229,163.554 458.562,166.387 458.5,169.5C 458.667,172.167 458.833,174.833 459,177.5C 459.725,176.941 460.558,176.608 461.5,176.5C 462.932,176.733 463.432,177.4 463,178.5C 462.107,177.289 461.274,177.289 460.5,178.5C 463,178.833 465.5,179.167 468,179.5C 471.867,179.152 475.701,178.986 479.5,179C 478.833,179.333 478.167,179.667 477.5,180C 478.833,186 478.833,192 477.5,198C 483.997,199.294 490.664,199.961 497.5,200C 495.942,200.21 494.609,200.71 493.5,201.5C 488.141,202.502 482.808,202.168 477.5,200.5C 476.54,194.227 476.207,187.893 476.5,181.5C 470.242,181.81 464.076,181.476 458,180.5C 456.424,174.612 456.091,168.612 457,162.5C 457.236,160.881 458.069,159.881 459.5,159.5 Z"/></g>
<g><path style="opacity:0.998" fill="#fe5801" d="M 330.5,190.5 C 330.667,207.17 330.5,223.837 330,240.5C 328.556,242.155 326.722,242.822 324.5,242.5C 314.765,241.822 304.932,241.155 295,240.5C 294.819,223.789 294.319,207.123 293.5,190.5C 305.654,190.452 317.987,190.452 330.5,190.5 Z"/></g>
<g><path style="opacity:0.99" fill="#f45902" d="M 330.5,190.5 C 317.987,190.452 305.654,190.452 293.5,190.5C 294.319,207.123 294.819,223.789 295,240.5C 304.932,241.155 314.765,241.822 324.5,242.5C 318.484,242.501 312.484,242.835 306.5,243.5C 301.56,243.279 296.726,242.612 292,241.5C 291.333,223.833 291.333,206.167 292,188.5C 304.091,187.346 316.258,187.179 328.5,188C 329.381,188.708 330.047,189.542 330.5,190.5 Z"/></g>
<g><path style="opacity:0.659" fill="#ed5903" d="M 347.5,242.5 C 355.167,241.167 362.833,241.167 370.5,242.5C 362.767,242.864 355.1,242.864 347.5,242.5 Z"/></g>
</svg>
